HIERARCHY
ROOT Hips
{
	OFFSET 52.959099 -13.367516 94.020798
	CHANNELS 6 Xposition Yposition Zposition Xrotation Yrotation Zrotation
	JOINT spine
	{
		OFFSET 0.000000 -0.448574 7.800591
		CHANNELS 3 Xrotation Yrotation Zrotation
		JOINT spine1
		{
			OFFSET 0.000000 -0.000002 10.136398
			CHANNELS 3 Xrotation Yrotation Zrotation
			JOINT spine2
			{
				OFFSET 0.000000 -0.000002 9.712509
				CHANNELS 3 Xrotation Yrotation Zrotation
				JOINT Neck
				{
					OFFSET 0.000000 -1.188874 24.936104
					CHANNELS 3 Xrotation Yrotation Zrotation
					JOINT Head
					{
						OFFSET 0.000000 -0.000001 7.533844
						CHANNELS 3 Xrotation Yrotation Zrotation
						End Site
						{
							OFFSET 0.000000 6.014017 18.236099
						}
					}
				}
				JOINT RightShoulder
				{
					OFFSET -4.089649 0.569455 10.488792
					CHANNELS 3 Xrotation Yrotation Zrotation
					JOINT RightArm
					{
						OFFSET 0.000000 -0.000002 13.757004
						CHANNELS 3 Xrotation Yrotation Zrotation
						JOINT RightArmRoll
						{
							OFFSET 0.000000 -0.000001 6.944778
							CHANNELS 3 Xrotation Yrotation Zrotation
							JOINT RightForeArm
							{
								OFFSET 0.000000 -0.000004 20.227692
								CHANNELS 3 Xrotation Yrotation Zrotation
								JOINT RightForeArmRoll
								{
									OFFSET 0.000000 -0.000001 7.793121
									CHANNELS 3 Xrotation Yrotation Zrotation
									JOINT RightHand
									{
										OFFSET 0.000000 -0.000003 15.639099
										CHANNELS 3 Xrotation Yrotation Zrotation
										End Site
										{
											OFFSET 0.000000 0.000000 0.100006
										}
									}
								}
							}
						}
					}
				}
				JOINT LeftShoulder
				{
					OFFSET 4.089649 0.569455 10.488792
					CHANNELS 3 Xrotation Yrotation Zrotation
					JOINT LeftArm
					{
						OFFSET 0.000000 -0.000002 13.757004
						CHANNELS 3 Xrotation Yrotation Zrotation
						JOINT LeftArmRoll
						{
							OFFSET 0.000000 -0.000001 6.944778
							CHANNELS 3 Xrotation Yrotation Zrotation
							JOINT LeftForeArm
							{
								OFFSET 0.000000 -0.000004 20.227692
								CHANNELS 3 Xrotation Yrotation Zrotation
								JOINT LeftForeArmRoll
								{
									OFFSET 0.000000 -0.000001 7.793121
									CHANNELS 3 Xrotation Yrotation Zrotation
									JOINT LeftHand
									{
										OFFSET 0.000000 -0.000003 15.639099
										CHANNELS 3 Xrotation Yrotation Zrotation
										End Site
										{
											OFFSET 0.000000 0.000000 0.100006
										}
									}
								}
							}
						}
					}
				}
			}
		}
	}
	JOINT RightUpLeg
	{
		OFFSET -6.914162 1.063580 -1.267883
		CHANNELS 3 Xrotation Yrotation Zrotation
		JOINT RightUpLegRoll
		{
			OFFSET 0.000000 -0.000003 18.337799
			CHANNELS 3 Xrotation Yrotation Zrotation
			JOINT RightLeg
			{
				OFFSET 0.000000 0.000004 -22.708496
				CHANNELS 3 Xrotation Yrotation Zrotation
				JOINT RightLegRoll
				{
					OFFSET 0.000000 -0.000004 22.782799
					CHANNELS 3 Xrotation Yrotation Zrotation
					JOINT RightFoot
					{
						OFFSET 0.000000 -0.000003 18.962898
						CHANNELS 3 Xrotation Yrotation Zrotation
						JOINT RightToeBase
						{
							OFFSET 0.000000 -0.000003 15.852005
							CHANNELS 3 Xrotation Yrotation Zrotation
							End Site
							{
								OFFSET 0.006718 0.884892 7.677017
							}
						}
					}
				}
			}
		}
	}
	JOINT LeftUpLeg
	{
		OFFSET 6.914162 1.063580 -1.267883
		CHANNELS 3 Xrotation Yrotation Zrotation
		JOINT LeftUpLegRoll
		{
			OFFSET 0.000000 -0.000003 18.337898
			CHANNELS 3 Xrotation Yrotation Zrotation
			JOINT LeftLeg
			{
				OFFSET 0.000000 -0.000004 22.708397
				CHANNELS 3 Xrotation Yrotation Zrotation
				JOINT LeftLegRoll
				{
					OFFSET 0.000000 -0.000004 22.993393
					CHANNELS 3 Xrotation Yrotation Zrotation
					JOINT LeftFoot
					{
						OFFSET 0.000000 -0.000003 18.752197
						CHANNELS 3 Xrotation Yrotation Zrotation
						JOINT LeftToeBase
						{
							OFFSET 0.000000 -0.000003 15.852005
							CHANNELS 3 Xrotation Yrotation Zrotation
							End Site
							{
								OFFSET -0.030113 0.884891 7.677017
							}
						}
					}
				}
			}
		}
	}
}
MOTION
Frames: 4
Frame Time: 0.041667
53.688900 -11.928717 94.156891 -5.002968 0.220827 -0.079773 -0.934305 0.080681 0.337559 2.110049 0.162952 0.664662 3.755077 0.170930 0.676004 13.671772 3.395692 -2.690657 -9.741594 -6.412357 -2.703764 -22.412991 -78.496386 -26.059062 -66.272827 -106.275776 -61.793008 -0.000001 0.000000 -0.000001 26.054054 -13.675201 2.191948 -0.000006 -0.000003 -3.000001 -5.000364 -7.998730 0.000221 4.767600 66.204983 -4.465430 -15.266465 110.740569 7.016748 0.000000 0.000003 0.000000 21.070058 6.110271 0.196108 -0.000002 -0.000005 3.000001 -5.000336 7.999222 -0.000110 0.463562 -175.549140 0.443930 179.999991 -0.000006 -0.922002 170.700771 -0.015794 -0.790580 -0.000002 0.000003 -0.046675 68.801199 5.353855 6.103495 25.456957 -7.355613 0.000000 2.372421 179.325592 6.487161 -0.000005 -0.000004 -1.430481 -10.777390 4.389617 0.617787 -0.000001 0.000003 -0.263600 73.593936 -7.507774 0.026988 25.456948 7.355614 -0.000001 
53.687698 -11.929316 94.156883 -5.006722 0.226720 -0.090161 -0.933985 0.080125 0.337559 2.112408 0.161634 0.664322 3.757427 0.169609 0.674382 13.650062 3.376954 -2.680904 -9.732331 -6.395920 -2.693730 -22.452077 -78.515934 -26.100205 -66.434176 -106.247909 -61.818765 -0.000001 -0.000000 -0.000001 25.915164 -13.643918 2.164516 -0.000002 -0.000003 -3.000001 -5.000360 -7.998730 0.000220 4.738980 66.187613 -4.435735 -15.069178 110.733131 6.725007 0.000000 0.000003 0.000000 21.014609 6.066274 0.203872 -0.000002 -0.000005 3.000001 -5.000337 7.999222 -0.000110 0.471822 -175.556147 0.441181 179.999991 -0.000005 -0.922002 170.710429 -0.015795 -0.789580 -0.000002 0.000003 -0.046946 68.793290 5.354488 6.101496 25.456959 -7.355613 0.000001 2.372185 179.319568 6.482855 -0.000005 -0.000004 -1.430440 -10.784619 4.390093 0.617784 0.000000 0.000003 -0.263574 73.592706 -7.507741 0.027710 25.456959 7.355614 -0.000001 
53.682098 -11.922812 94.149490 -5.010493 0.232754 -0.100557 -0.933722 0.079547 0.337559 2.114718 0.160289 0.663941 3.759737 0.168260 0.672664 13.628451 3.358074 -2.671177 -9.722654 -6.379439 -2.683655 -22.491538 -78.535564 -26.141729 -66.593238 -106.221203 -61.845416 -0.000001 0.000000 -0.000000 25.777935 -13.613923 2.137958 -0.000002 -0.000003 -3.000001 -5.000363 -7.998730 0.000220 4.709783 66.169459 -4.405507 -14.873485 110.726068 6.438081 0.000000 0.000003 -0.000000 20.960058 6.024099 0.211224 -0.000000 -0.000005 3.000001 -5.000341 7.999221 -0.000109 0.481421 -175.564166 0.438891 179.999991 -0.000005 -0.922002 170.722682 -0.017764 -0.789899 -0.000002 0.000003 -0.047338 68.783912 5.355008 6.099646 25.456960 -7.355614 0.000001 2.371778 179.312587 6.478098 -0.000005 -0.000004 -1.430389 -10.791854 4.390862 0.617777 0.000000 0.000003 -0.263537 73.591361 -7.507690 0.028427 25.456959 7.355613 -0.000001 
53.679401 -11.928818 94.149696 -5.014253 0.238887 -0.110958 -0.933495 0.078952 0.337560 2.116987 0.158925 0.663533 3.762006 0.166893 0.670879 13.606945 3.339082 -2.661456 -9.712710 -6.362914 -2.673568 -22.531361 -78.555276 -26.183626 -66.751896 -106.195501 -61.873960 -0.000001 -0.000000 0.000001 25.642014 -13.584803 2.112091 -0.000002 -0.000003 -3.000001 -5.000364 -7.998730 0.000221 4.680216 66.150806 -4.374940 -14.677592 110.721273 6.153105 -0.000001 0.000003 -0.000001 20.906082 5.983186 0.218284 0.000000 -0.000005 3.000000 -5.000335 7.999223 -0.000109 0.491961 -175.573155 0.436918 179.999991 -0.000005 -0.922002 170.736739 -0.018749 -0.789058 -0.000002 0.000003 -0.047816 68.773468 5.355401 6.098027 25.456959 -7.355614 0.000001 2.371239 179.306591 6.473098 -0.000005 -0.000004 -1.430320 -10.799188 4.391836 0.617778 -0.000000 0.000003 -0.263488 73.590002 -7.507612 0.029046 25.456957 7.355613 -0.000001 
